<?xml version="1.0" encoding="UTF-8" standalone="no"?>
<!DOCTYPE svg PUBLIC "-//W3C//DTD SVG 1.1//EN"
 "http://www.w3.org/Graphics/SVG/1.1/DTD/svg11.dtd">
<!-- Generated by graphviz version 2.44.1 (20200629.0846)
 -->
<!-- Pages: 1 -->
<svg width="332pt" height="319pt"
 viewBox="0.00 0.00 331.55 319.05" xmlns="http://www.w3.org/2000/svg" xmlns:xlink="http://www.w3.org/1999/xlink">
<g id="graph0" class="graph" transform="scale(1 1) rotate(0) translate(4 315.05)">
<polygon fill="white" stroke="transparent" points="-4,4 -4,-315.05 327.55,-315.05 327.55,4 -4,4"/>
<!-- 0t -->
<g id="node1" class="node">
<title>0t</title>
<ellipse fill="none" stroke="black" cx="305.55" cy="-155.53" rx="18" ry="18"/>
<text text-anchor="middle" x="305.55" y="-151.83" font-family="Times,serif" font-size="14.00">0t</text>
</g>
<!-- 3t -->
<g id="node2" class="node">
<title>3t</title>
<ellipse fill="none" stroke="black" cx="46.81" cy="-71.46" rx="18" ry="18"/>
<text text-anchor="middle" x="46.81" y="-67.76" font-family="Times,serif" font-size="14.00">3t</text>
</g>
<!-- 0t&#45;&#45;3t -->
<g id="edge1" class="edge">
<title>0t&#45;&#45;3t</title>
<path fill="none" stroke="red" d="M288.18,-149.88C241.04,-134.56 111.16,-92.36 64.12,-77.08"/>
</g>
<!-- 2h -->
<g id="node7" class="node">
<title>2h</title>
<ellipse fill="none" stroke="black" cx="19.5" cy="-155.53" rx="19.5" ry="19.5"/>
<text text-anchor="middle" x="19.5" y="-151.83" font-family="Times,serif" font-size="14.00">2h</text>
</g>
<!-- 3t&#45;&#45;2h -->
<g id="edge5" class="edge">
<title>3t&#45;&#45;2h</title>
<path fill="none" stroke="black" d="M41.15,-88.88C36.59,-102.92 30.19,-122.62 25.53,-136.96"/>
</g>
<!-- 1t -->
<g id="node3" class="node">
<title>1t</title>
<ellipse fill="none" stroke="black" cx="206.72" cy="-291.55" rx="18" ry="18"/>
<text text-anchor="middle" x="206.72" y="-287.85" font-family="Times,serif" font-size="14.00">1t</text>
</g>
<!-- 0h -->
<g id="node4" class="node">
<title>0h</title>
<ellipse fill="none" stroke="black" cx="278.24" cy="-239.6" rx="19.5" ry="19.5"/>
<text text-anchor="middle" x="278.24" y="-235.9" font-family="Times,serif" font-size="14.00">0h</text>
</g>
<!-- 1t&#45;&#45;0h -->
<g id="edge2" class="edge">
<title>1t&#45;&#45;0h</title>
<path fill="none" stroke="black" d="M221.54,-280.79C233.49,-272.11 250.25,-259.93 262.45,-251.07"/>
</g>
<!-- 2t -->
<g id="node5" class="node">
<title>2t</title>
<ellipse fill="none" stroke="black" cx="46.81" cy="-239.6" rx="18" ry="18"/>
<text text-anchor="middle" x="46.81" y="-235.9" font-family="Times,serif" font-size="14.00">2t</text>
</g>
<!-- 2t&#45;&#45;0h -->
<g id="edge3" class="edge">
<title>2t&#45;&#45;0h</title>
<path fill="none" stroke="red" d="M64.97,-239.6C107.7,-239.6 214.32,-239.6 258.54,-239.6"/>
</g>
<!-- 1h -->
<g id="node6" class="node">
<title>1h</title>
<ellipse fill="none" stroke="black" cx="118.33" cy="-291.55" rx="19.5" ry="19.5"/>
<text text-anchor="middle" x="118.33" y="-287.85" font-family="Times,serif" font-size="14.00">1h</text>
</g>
<!-- 2t&#45;&#45;1h -->
<g id="edge4" class="edge">
<title>2t&#45;&#45;1h</title>
<path fill="none" stroke="black" d="M61.63,-250.36C73.58,-259.04 90.34,-271.22 102.54,-280.08"/>
</g>
<!-- 1h&#45;&#45;2h -->
<g id="edge8" class="edge">
<title>1h&#45;&#45;2h</title>
<path fill="none" stroke="red" d="M106.8,-275.68C87.86,-249.61 50.35,-198 31.26,-171.72"/>
</g>
<!-- 4t -->
<g id="node8" class="node">
<title>4t</title>
<ellipse fill="none" stroke="black" cx="206.72" cy="-19.5" rx="18" ry="18"/>
<text text-anchor="middle" x="206.72" y="-15.8" font-family="Times,serif" font-size="14.00">4t</text>
</g>
<!-- 3h -->
<g id="node9" class="node">
<title>3h</title>
<ellipse fill="none" stroke="black" cx="118.33" cy="-19.5" rx="19.5" ry="19.5"/>
<text text-anchor="middle" x="118.33" y="-15.8" font-family="Times,serif" font-size="14.00">3h</text>
</g>
<!-- 4t&#45;&#45;3h -->
<g id="edge6" class="edge">
<title>4t&#45;&#45;3h</title>
<path fill="none" stroke="black" d="M189.26,-13.99C174.27,-12.39 152.7,-12.33 137.29,-13.84"/>
</g>
<!-- 4t&#45;&#45;3h -->
<g id="edge7" class="edge">
<title>4t&#45;&#45;3h</title>
<path fill="none" stroke="red" d="M189.26,-25C174.27,-26.61 152.7,-26.66 137.29,-25.16"/>
</g>
<!-- 4h -->
<g id="node10" class="node">
<title>4h</title>
<ellipse fill="none" stroke="black" cx="278.24" cy="-71.46" rx="19.5" ry="19.5"/>
<text text-anchor="middle" x="278.24" y="-67.76" font-family="Times,serif" font-size="14.00">4h</text>
</g>
</g>
</svg>
