<?xml version="1.0" encoding="UTF-8" standalone="no"?>
<!DOCTYPE svg PUBLIC "-//W3C//DTD SVG 1.1//EN"
 "http://www.w3.org/Graphics/SVG/1.1/DTD/svg11.dtd">
<!-- Generated by graphviz version 2.40.1 (20161225.0304)
 -->
<!-- Pages: 1 -->
<svg width="331pt" height="318pt"
 viewBox="0.00 0.00 331.01 317.96" xmlns="http://www.w3.org/2000/svg" xmlns:xlink="http://www.w3.org/1999/xlink">
<g id="graph0" class="graph" transform="scale(1 1) rotate(0) translate(4 313.9552)">
<polygon fill="#ffffff" stroke="transparent" points="-4,4 -4,-313.9552 327.0054,-313.9552 327.0054,4 -4,4"/>
<!-- 0t -->
<g id="node1" class="node">
<title>0t</title>
<ellipse fill="none" stroke="#000000" cx="305.0054" cy="-154.9776" rx="18" ry="18"/>
<text text-anchor="middle" x="305.0054" y="-150.7776" font-family="Times,serif" font-size="14.00" fill="#000000">0t</text>
</g>
<!-- 4t -->
<g id="node2" class="node">
<title>4t</title>
<ellipse fill="none" stroke="#000000" cx="206.1758" cy="-18.9503" rx="18" ry="18"/>
<text text-anchor="middle" x="206.1758" y="-14.7503" font-family="Times,serif" font-size="14.00" fill="#000000">4t</text>
</g>
<!-- 0t&#45;&#45;4t -->
<g id="edge1" class="edge">
<title>0t&#45;&#45;4t</title>
<path fill="none" stroke="#ff0000" d="M294.2408,-140.1613C275.23,-113.9953 235.9284,-59.9013 216.9271,-33.7483"/>
</g>
<!-- 3h -->
<g id="node5" class="node">
<title>3h</title>
<ellipse fill="none" stroke="#000000" cx="117.7799" cy="-18.9503" rx="18.9007" ry="18.9007"/>
<text text-anchor="middle" x="117.7799" y="-14.7503" font-family="Times,serif" font-size="14.00" fill="#000000">3h</text>
</g>
<!-- 4t&#45;&#45;3h -->
<g id="edge8" class="edge">
<title>4t&#45;&#45;3h</title>
<path fill="none" stroke="#000000" d="M187.8601,-18.9503C172.9926,-18.9503 152.0922,-18.9503 136.9895,-18.9503"/>
</g>
<!-- 1t -->
<g id="node3" class="node">
<title>1t</title>
<ellipse fill="none" stroke="#000000" cx="206.1758" cy="-291.0049" rx="18" ry="18"/>
<text text-anchor="middle" x="206.1758" y="-286.8049" font-family="Times,serif" font-size="14.00" fill="#000000">1t</text>
</g>
<!-- 0h -->
<g id="node4" class="node">
<title>0h</title>
<ellipse fill="none" stroke="#000000" cx="277.6896" cy="-239.0471" rx="18.9007" ry="18.9007"/>
<text text-anchor="middle" x="277.6896" y="-234.8471" font-family="Times,serif" font-size="14.00" fill="#000000">0h</text>
</g>
<!-- 1t&#45;&#45;0h -->
<g id="edge2" class="edge">
<title>1t&#45;&#45;0h</title>
<path fill="none" stroke="#000000" d="M220.9935,-280.2392C232.9397,-271.5597 249.7005,-259.3823 261.8987,-250.5198"/>
</g>
<!-- 1t&#45;&#45;3h -->
<g id="edge3" class="edge">
<title>1t&#45;&#45;3h</title>
<path fill="none" stroke="#ff0000" d="M200.5117,-273.5728C184.66,-224.786 139.9514,-87.1871 123.743,-37.3027"/>
</g>
<!-- 2t -->
<g id="node6" class="node">
<title>2t</title>
<ellipse fill="none" stroke="#000000" cx="46.2661" cy="-239.0471" rx="18" ry="18"/>
<text text-anchor="middle" x="46.2661" y="-234.8471" font-family="Times,serif" font-size="14.00" fill="#000000">2t</text>
</g>
<!-- 1h -->
<g id="node7" class="node">
<title>1h</title>
<ellipse fill="none" stroke="#000000" cx="117.7799" cy="-291.0049" rx="18.9007" ry="18.9007"/>
<text text-anchor="middle" x="117.7799" y="-286.8049" font-family="Times,serif" font-size="14.00" fill="#000000">1h</text>
</g>
<!-- 2t&#45;&#45;1h -->
<g id="edge4" class="edge">
<title>2t&#45;&#45;1h</title>
<path fill="none" stroke="#000000" d="M61.0838,-249.8128C73.0301,-258.4922 89.7909,-270.6697 101.9891,-279.5322"/>
</g>
<!-- 4h -->
<g id="node8" class="node">
<title>4h</title>
<ellipse fill="none" stroke="#000000" cx="277.6896" cy="-70.9081" rx="18.9007" ry="18.9007"/>
<text text-anchor="middle" x="277.6896" y="-66.7081" font-family="Times,serif" font-size="14.00" fill="#000000">4h</text>
</g>
<!-- 2t&#45;&#45;4h -->
<g id="edge5" class="edge">
<title>2t&#45;&#45;4h</title>
<path fill="none" stroke="#ff0000" d="M61.0948,-228.2735C102.5953,-198.1215 219.6439,-113.0808 262.0781,-82.2505"/>
</g>
<!-- 3t -->
<g id="node9" class="node">
<title>3t</title>
<ellipse fill="none" stroke="#000000" cx="46.2661" cy="-70.9081" rx="18" ry="18"/>
<text text-anchor="middle" x="46.2661" y="-66.7081" font-family="Times,serif" font-size="14.00" fill="#000000">3t</text>
</g>
<!-- 2h -->
<g id="node10" class="node">
<title>2h</title>
<ellipse fill="none" stroke="#000000" cx="18.9503" cy="-154.9776" rx="18.9007" ry="18.9007"/>
<text text-anchor="middle" x="18.9503" y="-150.7776" font-family="Times,serif" font-size="14.00" fill="#000000">2h</text>
</g>
<!-- 3t&#45;&#45;2h -->
<g id="edge6" class="edge">
<title>3t&#45;&#45;2h</title>
<path fill="none" stroke="#000000" d="M35.635,-85.8168C29.3887,-99.7643 22.5774,-120.6285 19.2965,-135.8054"/>
</g>
<!-- 3t&#45;&#45;2h -->
<g id="edge7" class="edge">
<title>3t&#45;&#45;2h</title>
<path fill="none" stroke="#ff0000" d="M46.1038,-89.2183C42.959,-104.1736 36.2057,-125.0567 29.9394,-139.2634"/>
</g>
</g>
</svg>
